<svg xmlns="http://www.w3.org/2000/svg" viewBox="0 0 64 64">
  <rect width="64" height="64" rx="12" fill="#0f172a"/>
  <path d="M18 30c0-8 6.5-14 14.5-14H46c2.2 0 4 1.8 4 4s-1.8 4-4 4H32.5c-4.1 0-7.5 3.4-7.5 7.5S28.4 39 32.5 39H40c6.6 0 12 5.4 12 12v1H42v-1c0-2.2-1.8-4-4-4H32.5C24.4 47 18 40.6 18 32.5V30z" fill="#22c55e"/>
  <circle cx="42" cy="22" r="2" fill="#e2e8f0"/>
  <circle cx="50" cy="22" r="2" fill="#e2e8f0"/>
  <circle cx="42.5" cy="22" r="1" fill="#0f172a"/>
  <circle cx="50.5" cy="22" r="1" fill="#0f172a"/>
  <path d="M52 28l4 2-4 2" stroke="#e2e8f0" stroke-width="2" stroke-linecap="round" stroke-linejoin="round"/>
</svg>
